<svg width="435" height="461" viewBox="0 0 435 461" fill="none" xmlns="http://www.w3.org/2000/svg">
<path d="M321.268 401.571C333.065 401.571 342.467 410.974 342.467 422.77C342.467 434.567 333.064 443.918 321.268 443.918C309.502 443.918 300.12 434.559 300.12 422.77C300.12 410.973 309.503 401.571 321.268 401.571ZM321.268 385.083C300.307 385.083 283.616 401.767 283.616 422.778C283.616 443.739 300.304 460.434 321.268 460.434C342.245 460.434 358.995 443.739 358.995 422.778C358.999 401.762 342.241 385.083 321.268 385.083Z" fill="#00A7B5"/>
<path d="M189.628 401.571C201.394 401.571 210.819 410.974 210.819 422.77C210.819 434.567 201.385 443.918 189.628 443.918C177.831 443.918 168.468 434.559 168.468 422.77C168.464 410.973 177.835 401.571 189.628 401.571ZM189.597 385.083C168.628 385.083 151.972 401.767 151.972 422.778C151.94 443.739 168.628 460.434 189.597 460.434C210.566 460.434 227.324 443.739 227.324 422.778C227.32 401.762 210.57 385.083 189.597 385.083Z" fill="#00A7B5"/>
<path d="M9.08774 11.8071C1.31044 11.936 -1.96326 21.7954 4.20494 26.5611L36.0879 51.7371C40.1465 54.9793 43.9082 58.5457 45.2949 63.5341L104.854 321.144C111.498 344.832 133.178 361.289 157.776 361.289H363.706C375.241 361.879 375.241 344.254 363.706 344.832H157.776C140.471 344.832 125.37 333.359 120.71 316.676L116.292 300.821H334.432C360.522 300.821 383.592 283.716 391.178 258.759L434.147 117.239C437.35 106.735 421.573 101.977 418.393 112.474L375.428 253.994C369.92 272.084 353.326 284.396 334.428 284.396L112.068 284.399L61.15 59.1094C59.1109 50.0977 52.1695 43.6484 44.986 37.9494L14.4549 13.6764C12.9237 12.4655 11.0527 11.7858 9.09555 11.8131L9.08774 11.8071Z" fill="#00A7B5"/>
<path d="M237.468 56.1012L324.374 125.691V222.98H266.233V158.003C266.233 140.53 251.815 126.237 234.35 126.237C216.873 126.237 202.522 140.53 202.522 158.003V222.983H150.502L150.506 125.69L237.468 56.1012ZM244.792 19.5542L348.822 98.4022C359.959 106.863 343.603 120.011 337.826 115.422L242.615 39.1602C239.603 36.7657 235.322 36.7657 232.349 39.1602L137.029 115.418C127.377 123.121 118.724 103.945 125.724 98.6252L230.174 19.5552C235.78 15.3052 240.369 16.188 244.787 19.5552L244.792 19.5542ZM237.468 0.6012C231.37 0.6012 225.308 2.5504 220.226 6.402L116.496 85.054C104.461 94.1868 103.848 109.097 111.5 120.538C114.898 125.659 119.863 129.909 126.086 131.944C128.586 132.76 131.301 133.014 134.094 132.885V231.213C134.094 235.749 137.789 239.409 142.324 239.409H210.738C215.305 239.409 218.969 235.749 218.969 231.213V158.002C218.969 149.44 225.644 142.74 234.367 142.74C243.085 142.74 249.793 149.412 249.793 158.002V231.213C249.793 235.749 253.484 239.409 258.019 239.409H332.624C337.159 239.409 340.823 235.749 340.823 231.213V132.885C343.613 133.014 346.331 132.76 348.831 131.944C355.023 129.905 360.206 125.823 363.405 120.538C371.288 107.671 370.503 94.12 358.811 85.276L254.711 6.397C249.594 2.5415 243.527 0.600098 237.473 0.600098L237.468 0.6012Z" fill="#00A7B5"/>
</svg>
