<?xml version="1.0" encoding="utf-8"?>
<!-- Generator: Adobe Illustrator 16.0.0, SVG Export Plug-In . SVG Version: 6.00 Build 0)  -->
<!DOCTYPE svg PUBLIC "-//W3C//DTD SVG 1.1//EN" "http://www.w3.org/Graphics/SVG/1.1/DTD/svg11.dtd">
<svg version="1.1" id="Layer_1" xmlns="http://www.w3.org/2000/svg" xmlns:xlink="http://www.w3.org/1999/xlink" x="0px" y="0px"
	 width="341.438px" height="76.973px" viewBox="149.399 36.507 341.438 76.973"
	 enable-background="new 149.399 36.507 341.438 76.973" xml:space="preserve">
<g>
	<g>
		<path fill="#00A7B5" d="M272.485,69.023h2.961c2.769,0,4.845-0.547,6.22-1.645c1.375-1.095,2.062-2.688,2.062-4.777
			c0-2.114-0.574-3.672-1.726-4.68c-1.158-1.008-2.961-1.508-5.422-1.508h-4.095V69.023z M292.821,62.28
			c0,4.571-1.426,8.067-4.284,10.489c-2.855,2.422-6.919,3.633-12.188,3.633h-3.863v15.109h-9.008V49.03h13.567
			c5.151,0,9.069,1.11,11.752,3.329C291.481,54.576,292.821,57.882,292.821,62.28L292.821,62.28z"/>
		<path fill="#00A7B5" d="M309.849,67.89h2.906c2.848,0,4.949-0.477,6.305-1.426s2.035-2.441,2.035-4.474
			c0-2.015-0.695-3.448-2.078-4.3c-1.387-0.852-3.531-1.277-6.438-1.277h-2.73V67.89z M309.849,75.21v16.301h-9.009V49.03h12.38
			c5.772,0,10.043,1.052,12.813,3.153c2.77,2.101,4.156,5.293,4.156,9.574c0,2.5-0.688,4.723-2.063,6.668
			c-1.375,1.949-3.324,3.473-5.84,4.578c6.391,9.547,10.555,15.719,12.491,18.508h-9.996L314.641,75.21H309.849z"/>
		<path fill="#00A7B5" d="M378.681,70.214c0,7.03-1.742,12.434-5.23,16.211c-3.484,3.776-8.484,5.668-14.992,5.668
			s-11.504-1.892-14.992-5.668c-3.483-3.777-5.229-9.199-5.229-16.271c0-7.069,1.75-12.468,5.246-16.198s8.508-5.595,15.035-5.595
			c6.526,0,11.521,1.879,14.979,5.638C376.954,57.757,378.681,63.163,378.681,70.214L378.681,70.214z M347.681,70.214
			c0,4.746,0.898,8.319,2.699,10.719c1.805,2.402,4.496,3.605,8.078,3.605c7.188,0,10.78-4.777,10.78-14.324
			c0-9.57-3.573-14.355-10.723-14.355c-3.582,0-6.285,1.207-8.104,3.617C348.591,61.89,347.681,65.468,347.681,70.214
			L347.681,70.214z"/>
		<path fill="#00A7B5" d="M396.493,69.023h2.965c2.771,0,4.84-0.547,6.215-1.645c1.375-1.095,2.063-2.688,2.063-4.777
			c0-2.114-0.573-3.672-1.728-4.68c-1.152-1.008-2.961-1.508-5.418-1.508h-4.098V69.023z M416.833,62.28
			c0,4.571-1.43,8.067-4.289,10.489c-2.854,2.422-6.918,3.633-12.188,3.633h-3.863v15.109h-9.008V49.03h13.57
			c5.152,0,9.07,1.11,11.75,3.329C415.489,54.576,416.833,57.882,416.833,62.28L416.833,62.28z"/>
		<path fill="#00A7B5" d="M461.626,83.24c1.849-3.526,2.773-7.866,2.773-13.026c0-7.31-1.816-12.938-5.449-16.888
			c-3.651-3.968-8.891-5.957-15.707-5.957c-6.813,0-12.066,1.97-15.758,5.907c-3.676,3.921-5.516,9.546-5.516,16.878
			c0,7.329,1.832,12.978,5.492,16.942c3.684,3.992,8.926,5.988,15.723,5.988h0.199l7.487,9.164c0.048,0.059,0.099,0.108,0.156,0.151
			c0.06,0.047,0.121,0.086,0.188,0.117c0.066,0.031,0.133,0.055,0.207,0.07c0.069,0.016,0.145,0.022,0.219,0.022h11.535
			c0.059,0,0.117-0.004,0.18-0.016c0.059-0.012,0.117-0.027,0.172-0.047c0.059-0.023,0.113-0.051,0.164-0.082
			s0.098-0.066,0.145-0.105c0.048-0.047,0.095-0.094,0.134-0.145s0.069-0.109,0.098-0.168c0.031-0.06,0.051-0.117,0.066-0.181
			c0.02-0.065,0.026-0.129,0.03-0.194c0.004-0.063,0-0.129-0.008-0.191c-0.008-0.065-0.022-0.129-0.047-0.19
			c-0.02-0.06-0.047-0.117-0.082-0.177c-0.031-0.055-0.07-0.108-0.113-0.155l-9.363-10.452
			C457.603,88.839,459.962,86.417,461.626,83.24L461.626,83.24z M457.493,54.671c3.281,3.569,4.922,8.75,4.922,15.543
			c0,4.832-0.848,8.867-2.543,12.104c-1.668,3.182-4.112,5.509-7.336,6.981c-0.059,0.026-0.117,0.063-0.168,0.098
			c-0.055,0.039-0.102,0.082-0.147,0.129c-0.043,0.051-0.082,0.103-0.117,0.156s-0.063,0.113-0.086,0.176
			c-0.021,0.06-0.039,0.121-0.047,0.188c-0.013,0.063-0.017,0.129-0.013,0.19c0,0.066,0.009,0.133,0.023,0.195
			c0.015,0.062,0.039,0.125,0.063,0.184c0.043,0.091,0.099,0.173,0.164,0.25l8.746,9.767h-8.844l-7.488-9.168
			c-0.047-0.06-0.102-0.109-0.156-0.152c-0.059-0.047-0.121-0.086-0.188-0.116c-0.066-0.031-0.137-0.056-0.207-0.07
			c-0.07-0.016-0.145-0.023-0.219-0.023h-0.668c-6.219,0-10.973-1.781-14.262-5.348c-3.313-3.586-4.969-8.785-4.969-15.599
			c0-6.808,1.659-11.983,4.977-15.519c3.301-3.521,8.07-5.281,14.313-5.281C449.481,49.355,454.231,51.128,457.493,54.671
			L457.493,54.671z M434.345,58.878c-1.953,2.59-2.93,6.366-2.93,11.336c0,4.965,0.965,8.737,2.897,11.315c2,2.664,4.957,4,8.871,4
			c7.848,0,11.772-5.104,11.772-15.315c0-10.23-3.905-15.349-11.715-15.349C439.329,54.865,436.364,56.206,434.345,58.878
			L434.345,58.878z M435.899,80.339c-1.668-2.228-2.504-5.603-2.504-10.125c0-4.523,0.844-7.906,2.531-10.142
			c1.625-2.147,4.063-3.222,7.315-3.222c6.488,0,9.73,4.453,9.73,13.363c0,8.887-3.263,13.332-9.789,13.332
			C439.931,83.546,437.505,82.476,435.899,80.339L435.899,80.339z"/>
		<path fill="#00A7B5" d="M182.731,113.48l-33.332-19.246V55.749l33.332-19.242l33.332,19.242v38.483L182.731,113.48z
			 M182.731,72.115l25.871-14.94l-25.871-14.918l-25.898,14.94L182.731,72.115z M154.373,61.472v29.887l28.359,16.371l25.849-14.946
			L154.373,61.472z M211.09,88.511V61.499L187.731,74.99L211.09,88.511z"/>
		<rect x="235.028" y="36.507" fill="#00A7B5" width="1.828" height="76.973"/>
	</g>
	<g>
		<path d="M480.232,48.811h-2.66v7.336h-1.471v-7.336h-2.637v-1.195h6.768V48.811z"/>
		<path d="M483.273,47.615l2.461,6.539l2.455-6.539h1.916v8.531h-1.477v-2.813l0.146-3.762l-2.52,6.574h-1.061l-2.514-6.568
			l0.146,3.756v2.813h-1.477v-8.531H483.273z"/>
	</g>
</g>
</svg>
