<svg width="371" height="449" viewBox="0 0 371 449" fill="none" xmlns="http://www.w3.org/2000/svg">
<path d="M367.846 325.992L267.046 247.59C265.026 246.019 262.19 246.019 260.167 247.594L240.769 262.684C234.031 257.852 226.531 254.289 218.32 252.235L178.351 242.231L174.917 231.926L187.397 225.117C203.319 216.398 213.209 199.754 213.209 181.679V163.999L229.201 124.015C233.451 113.382 235.608 102.187 235.608 90.7421V45.3161C235.608 33.3511 230.947 22.0971 222.487 13.6321C216.299 7.4485 208.538 3.24109 200.049 1.46409C193.181 0.0460923 186.268 2.82739 182.436 8.58129L179.608 12.8196L176.393 7.99539C173.272 3.31179 168.045 0.514893 162.416 0.514893H103.447C83.4547 0.514893 64.6067 8.31179 50.3687 22.4919C36.2087 36.7149 28.4077 55.5619 28.4077 75.5539C28.4077 107.597 38.1186 138.324 56.4077 164.581V181.675C56.4077 199.753 66.2983 216.398 82.2277 225.12L94.7007 231.925L91.2671 242.23L51.3021 252.234C21.3371 259.71 0.411133 286.515 0.411133 317.418L0.407227 442.918C0.407227 446.011 2.91502 448.519 6.00882 448.519H336.409C339.503 448.519 342.01 446.011 342.01 442.918L342.007 336.018H364.405C366.799 336.018 368.924 334.498 369.701 332.236C370.479 329.971 369.733 327.467 367.846 325.998V325.992ZM61.7659 112.042C61.7308 112.042 61.6995 112.026 61.6644 112.026C60.0394 112.124 58.4105 112.128 56.7386 112.128C53.5159 112.116 50.8011 114.522 50.8011 117.729C50.8011 120.823 53.3089 123.331 56.4027 123.331V143.269C45.3677 122.492 39.6017 99.4139 39.6017 75.5619C39.6017 58.5499 46.2423 42.5109 58.2817 30.4169C70.3907 18.3579 86.4337 11.7179 103.442 11.7179H162.411C164.286 11.7179 166.028 12.6515 167.071 14.2101L174.946 26.0221C175.985 27.5846 177.731 28.5182 179.602 28.5182C181.477 28.5182 183.223 27.5846 184.262 26.026L191.751 14.796C193.04 12.8663 195.391 11.9405 197.754 12.4327C204.11 13.7608 209.922 16.9171 214.566 21.5577C220.91 27.9015 224.402 36.3427 224.402 45.3197V90.7417C224.402 100.758 222.516 110.554 218.793 119.859L213.199 133.843V121.37C213.199 119.092 211.82 117.042 209.711 116.182C191.746 108.878 175.52 84.7952 175.356 84.5492C173.672 82.0375 170.301 81.3031 167.735 82.9047C167.293 83.1821 122.688 110.507 61.8548 112.022C61.8235 112.018 61.7962 112.037 61.761 112.041L61.7659 112.042ZM87.5979 215.292C75.2659 208.538 67.6059 195.655 67.6059 181.675L67.602 162.913V123.007C118.137 120.55 156.332 102.03 169.102 95.0298C174.676 102.448 187.231 117.538 202 124.96V181.675C202 195.655 194.34 208.538 182.016 215.284L153.18 231.014C141.871 237.162 127.719 237.154 116.426 231.018L87.5979 215.292ZM167.5 245.112L142.078 266.909C137.933 270.463 131.672 270.463 127.527 266.909L102.105 245.112L104.683 237.373L111.074 240.862C118.371 244.819 126.574 246.913 134.804 246.913C143.034 246.913 151.238 244.819 158.542 240.854L164.921 237.373L167.5 245.112ZM56.3999 437.312H11.5989V414.914H56.3999V437.312ZM185.2 437.312H67.5999V375.71C67.5999 372.616 65.0921 370.108 61.9983 370.108C58.9045 370.108 56.3967 372.616 56.3967 375.71V403.71H11.5957L11.5996 317.413C11.5996 291.659 29.0376 269.323 54.0056 263.097L94.1506 253.046L120.233 275.409C128.541 282.522 141.065 282.522 149.366 275.409L175.448 253.046L215.593 263.097C221.327 264.53 226.663 266.796 231.538 269.855L159.362 325.988C157.475 327.456 156.729 329.96 157.506 332.226C158.283 334.488 160.408 336.007 162.803 336.007H185.201L185.2 437.312ZM308.4 437.312H286.002V386.914H308.4V437.312ZM330.802 437.312H319.603L319.599 381.312C319.599 378.218 317.091 375.71 313.997 375.71H280.395C277.302 375.71 274.794 378.218 274.794 381.312V437.312H196.399V336.012H201.551C202.719 336.012 203.856 335.649 204.805 334.969L263.61 293L322.395 334.969C323.344 335.648 324.481 336.012 325.649 336.012H330.801L330.802 437.312ZM336.4 324.812H327.443L266.853 281.558C264.903 280.163 262.282 280.167 260.329 281.566L199.755 324.812H179.114L244.298 274.128C244.31 274.12 244.31 274.108 244.322 274.096L263.595 259.104L348.079 324.807L336.4 324.812Z" fill="#00A7B5"/>
<path d="M235.606 336.512C217.079 336.512 202.004 351.582 202.004 370.114C202.004 388.641 217.074 403.716 235.606 403.716C254.133 403.716 269.208 388.646 269.208 370.114C269.208 351.582 254.138 336.512 235.606 336.512ZM230.008 391.805C222.145 389.774 215.946 383.574 213.914 375.711H230.008V391.805ZM230.008 364.512H213.914C215.945 356.648 222.145 350.453 230.008 348.418V364.512ZM241.207 391.805V375.711H257.301C255.266 383.574 249.067 389.773 241.207 391.805ZM241.207 364.512V348.418C249.067 350.453 255.266 356.648 257.297 364.512H241.207Z" fill="#00A7B5"/>
</svg>
