<svg width="79" height="98" viewBox="0 0 79 98" fill="none" xmlns="http://www.w3.org/2000/svg">
<path d="M63.7816 85.1755C63.2355 85.1755 62.7119 84.9584 62.3257 84.572C61.9396 84.1855 61.7227 83.6614 61.7227 83.1148V83.0582V82.9944V30.6626C61.7246 30.1167 61.9421 29.5936 62.3278 29.2075C62.7135 28.8215 63.2361 28.6038 63.7816 28.6019H73.4036C73.9491 28.6038 74.4717 28.8215 74.8574 29.2075C75.2431 29.5936 75.4606 30.1167 75.4625 30.6626V83.1148C75.4625 83.6614 75.2456 84.1855 74.8595 84.572C74.4733 84.9584 73.9497 85.1755 73.4036 85.1755H63.7816ZM65.8404 81.0683H71.3448V32.7162H65.8333L65.8404 81.0683ZM44.3889 85.1755C44.1179 85.1764 43.8494 85.1238 43.5988 85.0207C43.3482 84.9175 43.1204 84.7659 42.9285 84.5745C42.7365 84.383 42.5842 84.1555 42.4803 83.9051C42.3764 83.6546 42.3229 83.386 42.3229 83.1148V58.3298C42.3248 57.7826 42.5433 57.2585 42.9305 56.8722C43.3178 56.486 43.8422 56.2691 44.3889 56.2691H54.0109C54.5557 56.271 55.0776 56.4889 55.4622 56.8752C55.8467 57.2614 56.0627 57.7845 56.0627 58.3298V83.1148C56.0627 83.6601 55.8467 84.1832 55.4622 84.5695C55.0776 84.9557 54.5557 85.1736 54.0109 85.1755H44.3889ZM46.4406 81.0683H51.945V60.3763H46.4406V81.0683ZM24.9891 85.1755C24.443 85.1755 23.9194 84.9584 23.5333 84.572C23.1471 84.1855 22.9302 83.6614 22.9302 83.1148V46.6667C22.9321 46.1214 23.1498 45.599 23.5357 45.2141C23.9217 44.8292 24.4443 44.613 24.9891 44.613H34.6041C35.1489 44.613 35.6715 44.8292 36.0574 45.2141C36.4433 45.599 36.661 46.1214 36.6629 46.6667V83.1148C36.6629 83.3854 36.6096 83.6534 36.5062 83.9034C36.4027 84.1534 36.2511 84.3806 36.0599 84.572C35.8687 84.7633 35.6417 84.9151 35.3919 85.0187C35.1422 85.1222 34.8744 85.1755 34.6041 85.1755H24.9891ZM27.0479 81.0683H32.5452V48.7344H27.0479V81.0683ZM5.59636 85.1755C5.32547 85.1774 5.0569 85.1254 4.80626 85.0225C4.55562 84.9196 4.32791 84.7679 4.13635 84.5761C3.94479 84.3844 3.79321 84.1565 3.69041 83.9056C3.58761 83.6548 3.53564 83.386 3.53752 83.1148V68.2438C3.53658 67.9733 3.58925 67.7052 3.69247 67.4552C3.79569 67.2051 3.94742 66.978 4.13888 66.7871C4.33034 66.5961 4.55774 66.445 4.80791 66.3425C5.05808 66.2401 5.32607 66.1883 5.59636 66.1902H15.2184C15.4885 66.1893 15.756 66.2417 16.0058 66.3445C16.2555 66.4473 16.4825 66.5984 16.6738 66.7892C16.8651 66.9799 17.0169 67.2067 17.1204 67.4563C17.224 67.7059 17.2773 67.9735 17.2773 68.2438V83.1148C17.2782 83.3857 17.2256 83.6541 17.1225 83.9045C17.0193 84.155 16.8677 84.3825 16.6763 84.574C16.485 84.7656 16.2576 84.9173 16.0074 85.0206C15.7572 85.1238 15.4891 85.1765 15.2184 85.1755H5.59636ZM7.6552 81.0683H13.1596V70.3328H7.64813L7.6552 81.0683ZM3.8559 54.5837C3.85487 53.578 4.08421 52.5855 4.52629 51.6824C4.96838 50.7793 5.61144 49.9897 6.40606 49.3742C7.20068 48.7587 8.1257 48.3338 9.11003 48.132C10.0944 47.9303 11.1118 47.9571 12.0842 48.2104L24.9466 29.6075C24.232 28.8186 23.7201 27.8675 23.4551 26.8363C23.1901 25.805 23.18 24.7247 23.4257 23.6886C23.6713 22.6526 24.1654 21.692 24.8651 20.8899C25.5648 20.0879 26.4491 19.4684 27.4417 19.0851C28.4342 18.7017 29.505 18.5661 30.5617 18.6899C31.6183 18.8137 32.6289 19.1931 33.5062 19.7955C34.3835 20.3978 35.101 21.205 35.5968 22.1471C36.0925 23.0892 36.3516 24.138 36.3516 25.2028C36.3509 26.0779 36.1778 26.9441 35.8422 27.7521L45.1883 35.1381C45.988 34.539 46.91 34.1243 47.8885 33.9235C48.867 33.7228 49.8777 33.7409 50.8484 33.9767L63.7603 14.524C62.7456 13.4159 62.1425 11.9921 62.0523 10.4916C61.9621 8.99114 62.3902 7.50526 63.2649 6.2833C64.1395 5.06133 65.4074 4.17765 66.8559 3.78052C68.3044 3.38339 69.8453 3.49699 71.22 4.10225C72.5947 4.70751 73.7196 5.7676 74.4059 7.10464C75.0923 8.44168 75.2983 9.97432 74.9894 11.4454C74.6805 12.9164 73.8755 14.2364 72.7095 15.1838C71.5434 16.1312 70.0874 16.6483 68.5855 16.6485C67.9474 16.6509 67.3127 16.5554 66.7036 16.3652L53.8623 35.7329C54.6804 36.5735 55.2573 37.619 55.5324 38.7597C55.8075 39.9004 55.7708 41.0941 55.426 42.2157C55.0813 43.3373 54.4412 44.3452 53.573 45.1338C52.7048 45.9224 51.6405 46.4625 50.4919 46.6974C49.3432 46.9324 48.1525 46.8534 47.0449 46.469C45.9372 46.0845 44.9534 45.4086 44.1966 44.5123C43.4399 43.6161 42.9382 42.5324 42.7442 41.3751C42.5503 40.2179 42.6711 39.0297 43.0941 37.9352L33.6702 30.4502C32.8429 31.0392 31.8934 31.4337 30.8925 31.6041C29.8916 31.7746 28.8652 31.7166 27.8898 31.4345L15.0911 50.0162C16.2874 51.2345 16.9559 52.8755 16.9518 54.5837C16.9518 56.3228 16.2616 57.9907 15.0329 59.2205C13.8043 60.4502 12.1379 61.1411 10.4003 61.1411C8.66276 61.1411 6.99636 60.4502 5.76772 59.2205C4.53907 57.9907 3.84883 56.3228 3.84883 54.5837H3.8559ZM7.33683 54.5837C7.33543 55.1922 7.5145 55.7873 7.85136 56.2938C8.18822 56.8003 8.66771 57.1953 9.22907 57.4288C9.79043 57.6623 10.4084 57.7238 11.0047 57.6054C11.601 57.4871 12.1488 57.1942 12.5786 56.764C13.0085 56.3337 13.3011 55.7855 13.4193 55.1886C13.5376 54.5918 13.4762 53.9733 13.2429 53.4114C13.0096 52.8495 12.6149 52.3696 12.1089 52.0324C11.6029 51.6953 11.0082 51.516 10.4003 51.5174C9.58783 51.5174 8.80862 51.8405 8.2341 52.4155C7.65959 52.9906 7.33683 53.7705 7.33683 54.5837ZM46.1222 40.3642C46.1222 40.972 46.3023 41.5662 46.6397 42.0716C46.9771 42.577 47.4567 42.971 48.0178 43.2036C48.5788 43.4362 49.1962 43.4971 49.7919 43.3785C50.3875 43.2599 50.9346 42.9672 51.364 42.5374C51.7935 42.1076 52.0859 41.5599 52.2044 40.9638C52.3229 40.3676 52.2621 39.7496 52.0297 39.1881C51.7972 38.6265 51.4037 38.1465 50.8987 37.8088C50.3938 37.4711 49.8001 37.2908 49.1928 37.2908C48.7891 37.289 48.3889 37.3672 48.0155 37.521C47.6422 37.6747 47.3029 37.9011 47.0174 38.1868C46.7319 38.4726 46.5058 38.8121 46.3522 39.1859C46.1985 39.5596 46.1204 39.9601 46.1222 40.3642ZM26.7295 25.2028C26.7309 25.8104 26.9122 26.4039 27.2505 26.9084C27.5887 27.4128 28.0687 27.8056 28.6299 28.0372C29.1911 28.2687 29.8083 28.3286 30.4035 28.2092C30.9986 28.0898 31.5451 27.7965 31.9738 27.3664C32.4025 26.9363 32.6943 26.3887 32.8122 25.7927C32.9301 25.1968 32.8689 24.5792 32.6363 24.018C32.4037 23.4568 32.0101 22.9773 31.5053 22.6399C31.0005 22.3025 30.4071 22.1224 29.8001 22.1224C28.9851 22.1243 28.2041 22.4497 27.6285 23.0271C27.0528 23.6046 26.7295 24.3871 26.7295 25.2028ZM65.515 10.091C65.5136 10.6992 65.6925 11.2941 66.029 11.8004C66.3655 12.3068 66.8446 12.7018 67.4056 12.9355C67.9665 13.1692 68.5841 13.2311 69.1802 13.1133C69.7763 12.9955 70.3241 12.7033 70.7542 12.2738C71.1844 11.8443 71.4775 11.2967 71.5966 10.7003C71.7156 10.1039 71.6552 9.48564 71.423 8.92365C71.1908 8.36165 70.7973 7.88124 70.2922 7.54323C69.7871 7.20521 69.1931 7.02478 68.5855 7.02478C67.7724 7.02478 66.9924 7.3476 66.4168 7.92244C65.8412 8.49727 65.5168 9.27717 65.515 10.091Z" fill="#5B6C8F"/>
</svg>
